<svg width="50" height="34" viewBox="0 0 50 34" fill="none" xmlns="http://www.w3.org/2000/svg">
<path d="M18.8943 24.5376C18.5687 26.328 18.0533 27.8879 17.348 29.2171C16.6698 30.5464 15.6119 31.7671 14.1741 32.8793C13.9571 33.0421 13.5095 33.1777 12.8313 33.2862C12.1802 33.4219 11.3935 33.5304 10.4712 33.6118C9.57599 33.6931 8.59941 33.7474 7.54143 33.7745C6.51059 33.8288 5.50688 33.8423 4.53029 33.8152C3.58083 33.8152 2.71275 33.7745 1.92605 33.6931C1.13935 33.6389 0.569677 33.5439 0.21702 33.4083C-3.59764e-08 30.2887 -0.0542549 27.1283 0.0542549 23.9273C0.162765 20.7262 0.21702 17.5659 0.21702 14.4462C0.21702 13.8494 0.21702 12.9271 0.21702 11.6792C0.244147 10.4042 0.257711 9.08854 0.257711 7.73217C0.284838 6.3758 0.311966 5.11437 0.339093 3.94789C0.393348 2.78141 0.461167 1.98115 0.542549 1.54711C2.08881 0.841794 4.05556 0.407754 6.44277 0.24499C8.85712 0.0550971 11.38 0.231425 14.0113 0.773974C14.9608 0.990994 15.7475 1.42503 16.3714 2.07609C16.9954 2.72715 17.4701 3.51385 17.7956 4.43618C18.1211 5.33139 18.2975 6.30798 18.3246 7.36595C18.3789 8.39679 18.2975 9.40051 18.0805 10.3771C17.8906 11.3537 17.5922 12.2625 17.1852 13.1034C16.7783 13.9172 16.29 14.5547 15.7204 15.0159C16.5613 15.4771 17.2259 16.0739 17.7142 16.8063C18.2025 17.5387 18.5552 18.339 18.7722 19.2071C19.0164 20.0752 19.1384 20.9704 19.1384 21.8927C19.1384 22.815 19.057 23.6967 18.8943 24.5376ZM11.7733 7.48802C11.6648 6.99973 11.4614 6.6335 11.163 6.38936C10.8917 6.11808 10.5797 5.94176 10.2271 5.86037C9.90152 5.75186 9.56243 5.72474 9.20977 5.77899C8.88424 5.80612 8.59941 5.87394 8.35526 5.98245C8.02973 6.14521 7.79915 6.51143 7.66351 7.08111C7.555 7.65079 7.48718 8.28828 7.46005 8.99359C7.43292 9.67178 7.41936 10.3364 7.41936 10.9875C7.44649 11.6385 7.46005 12.1268 7.46005 12.4523C7.43292 13.3747 7.58213 13.8765 7.90766 13.9579C8.26031 14.0393 8.82999 13.9172 9.61669 13.5917C10.2677 13.3476 10.7696 12.9813 11.1223 12.493C11.4749 12.0047 11.7191 11.4758 11.8547 10.9061C11.9903 10.3364 12.0446 9.75316 12.0175 9.15636C11.9903 8.53243 11.909 7.97631 11.7733 7.48802ZM12.2616 20.8754C12.2616 20.4414 12.0988 20.1294 11.7733 19.9395C11.4478 19.7496 11.0544 19.6276 10.5933 19.5733C10.1592 19.519 9.69807 19.519 9.20977 19.5733C8.72148 19.6004 8.301 19.614 7.94835 19.614C7.81271 19.614 7.69064 19.831 7.58213 20.2651C7.50074 20.6991 7.41936 21.2145 7.33798 21.8113C7.28372 22.381 7.22947 22.9778 7.17521 23.6017C7.12096 24.1985 7.09383 24.6733 7.09383 25.0259C7.09383 25.2429 7.08027 25.5685 7.05314 26.0025C7.05314 26.4094 7.0667 26.8299 7.09383 27.2639C7.14809 27.698 7.21591 28.1049 7.29729 28.4847C7.4058 28.8373 7.56856 29.0679 7.78558 29.1764C8.08398 29.3392 8.39595 29.3934 8.72148 29.3392C9.04701 29.2578 9.35897 29.1493 9.65738 29.0137C10.3898 28.7153 10.9324 28.2405 11.285 27.5895C11.6648 26.9384 11.9225 26.2195 12.0582 25.4328C12.2209 24.619 12.2887 23.8052 12.2616 22.9914C12.2616 22.1775 12.2616 21.4722 12.2616 20.8754Z" fill="#171717"/>
<path d="M34.0378 26.5722C34.0649 27.0605 34.0649 27.5759 34.0378 28.1185C34.0378 28.6339 34.0106 29.1357 33.9564 29.624C33.9021 30.0852 33.8207 30.5192 33.7122 30.9261C33.6308 31.3059 33.5223 31.5908 33.3867 31.7807C32.4915 31.9977 31.5149 32.2011 30.4569 32.391C29.4261 32.5538 28.3546 32.6759 27.2423 32.7572C26.1572 32.8386 25.0586 32.8658 23.9463 32.8386C22.8341 32.8115 21.7355 32.703 20.6504 32.5131C20.5147 31.645 20.4333 30.5192 20.4062 29.1357C20.3791 27.7522 20.3791 26.3009 20.4062 24.7818C20.4333 23.2626 20.474 21.7842 20.5283 20.3464C20.5825 18.8816 20.6232 17.6608 20.6504 16.6842C20.6775 15.5449 20.6775 14.3377 20.6504 13.0627C20.6504 11.7606 20.6504 10.4449 20.6504 9.11567C20.6775 7.78642 20.7182 6.4843 20.7724 5.20931C20.8267 3.9072 20.9216 2.6729 21.0573 1.50642C21.4913 1.31652 22.2373 1.1402 23.2953 0.977432C24.3533 0.814666 25.4926 0.692592 26.7133 0.611211C27.9341 0.529828 29.1141 0.5027 30.2535 0.529827C31.3928 0.529827 32.2473 0.597646 32.817 0.733283C32.8984 0.950303 32.9662 1.34365 33.0205 1.91333C33.1019 2.45588 33.1561 3.03912 33.1832 3.66305C33.2104 4.25985 33.2104 4.84309 33.1832 5.41277C33.1561 5.95532 33.0883 6.32154 32.9798 6.51143C32.7628 6.45718 32.3965 6.43005 31.8811 6.43005C31.3928 6.40292 30.8638 6.38936 30.2942 6.38936C29.7516 6.38936 29.2226 6.40292 28.7072 6.43005C28.2189 6.45718 27.8663 6.4843 27.6492 6.51143C27.5407 7.02685 27.4458 7.62366 27.3644 8.30185C27.3102 8.98003 27.2695 9.67178 27.2423 10.3771C27.2423 11.0824 27.2695 11.7742 27.3237 12.4523C27.378 13.1034 27.4865 13.646 27.6492 14.08C28.029 13.9986 28.4631 13.9444 28.9514 13.9172C29.4397 13.863 29.9415 13.8358 30.4569 13.8358C30.9995 13.8087 31.5149 13.7816 32.0032 13.7545C32.5186 13.7273 32.9798 13.6731 33.3867 13.5917C33.4681 14.3241 33.5223 15.1787 33.5495 16.1552C33.5766 17.1318 33.4681 17.9457 33.2239 18.5967C32.8984 18.8137 32.4915 19.0036 32.0032 19.1664C31.5149 19.302 30.9995 19.4241 30.4569 19.5326C29.9144 19.6411 29.3718 19.7361 28.8293 19.8175C28.2867 19.8988 27.7984 19.9802 27.3644 20.0616C27.3102 20.9568 27.2695 21.9198 27.2423 22.9507C27.2423 23.9815 27.2695 24.9445 27.3237 25.8397C27.3237 26.1381 27.4051 26.423 27.5679 26.6943C27.7306 26.9384 27.8934 27.0469 28.0562 27.0198C29.0056 26.8842 30.0093 26.8028 31.0673 26.7756C32.1524 26.7214 33.1426 26.6536 34.0378 26.5722Z" fill="#171717"/>
<path d="M49.4273 26.5722C49.4544 27.0605 49.4544 27.5759 49.4273 28.1185C49.4273 28.6339 49.4002 29.1357 49.3459 29.624C49.2917 30.0852 49.2103 30.5192 49.1018 30.9261C49.0204 31.3059 48.9119 31.5908 48.7762 31.7807C47.881 31.9977 46.9044 32.2011 45.8465 32.391C44.8156 32.5538 43.7441 32.6759 42.6319 32.7572C41.5468 32.8386 40.4481 32.8658 39.3359 32.8386C38.2237 32.8115 37.125 32.703 36.0399 32.5131C35.9043 31.645 35.8229 30.5192 35.7957 29.1357C35.7686 27.7522 35.7686 26.3009 35.7957 24.7818C35.8229 23.2626 35.8636 21.7842 35.9178 20.3464C35.9721 18.8816 36.0128 17.6608 36.0399 16.6842C36.067 15.5449 36.067 14.3377 36.0399 13.0627C36.0399 11.7606 36.0399 10.4449 36.0399 9.11567C36.067 7.78642 36.1077 6.4843 36.162 5.20931C36.2162 3.9072 36.3112 2.6729 36.4468 1.50642C36.8808 1.31652 37.6269 1.1402 38.6848 0.977432C39.7428 0.814666 40.8821 0.692592 42.1029 0.611211C43.3236 0.529828 44.5037 0.5027 45.643 0.529827C46.7824 0.529827 47.6369 0.597646 48.2066 0.733283C48.2879 0.950303 48.3558 1.34365 48.41 1.91333C48.4914 2.45588 48.5457 3.03912 48.5728 3.66305C48.5999 4.25985 48.5999 4.84309 48.5728 5.41277C48.5457 5.95532 48.4778 6.32154 48.3693 6.51143C48.1523 6.45718 47.7861 6.43005 47.2707 6.43005C46.7824 6.40292 46.2534 6.38936 45.6837 6.38936C45.1412 6.38936 44.6122 6.40292 44.0968 6.43005C43.6085 6.45718 43.2558 6.4843 43.0388 6.51143C42.9303 7.02685 42.8353 7.62366 42.7539 8.30185C42.6997 8.98003 42.659 9.67178 42.6319 10.3771C42.6319 11.0824 42.659 11.7742 42.7133 12.4523C42.7675 13.1034 42.876 13.646 43.0388 14.08C43.4186 13.9986 43.8526 13.9444 44.3409 13.9172C44.8292 13.863 45.3311 13.8358 45.8465 13.8358C46.389 13.8087 46.9044 13.7816 47.3927 13.7545C47.9082 13.7273 48.3693 13.6731 48.7762 13.5917C48.8576 14.3241 48.9119 15.1787 48.939 16.1552C48.9661 17.1318 48.8576 17.9457 48.6135 18.5967C48.2879 18.8137 47.881 19.0036 47.3927 19.1664C46.9044 19.302 46.389 19.4241 45.8465 19.5326C45.3039 19.6411 44.7614 19.7361 44.2188 19.8175C43.6763 19.8988 43.188 19.9802 42.7539 20.0616C42.6997 20.9568 42.659 21.9198 42.6319 22.9507C42.6319 23.9815 42.659 24.9445 42.7133 25.8397C42.7133 26.1381 42.7946 26.423 42.9574 26.6943C43.1202 26.9384 43.2829 27.0469 43.4457 27.0198C44.3952 26.8842 45.3989 26.8028 46.4568 26.7756C47.5419 26.7214 48.5321 26.6536 49.4273 26.5722Z" fill="#171717"/>
</svg>
