<svg width="261" height="59" viewBox="0 0 261 59" fill="none" xmlns="http://www.w3.org/2000/svg">
<path d="M33.4866 42.0261C32.9257 45.1112 32.0375 47.7989 30.8222 50.0894C29.6536 52.3798 27.8306 54.4833 25.3532 56.3998C24.9792 56.6802 24.208 56.914 23.0394 57.1009C21.9175 57.3347 20.5619 57.5216 18.9727 57.6619C17.4301 57.8021 15.7473 57.8956 13.9243 57.9423C12.1481 58.0358 10.4185 58.0592 8.73577 58.0124C7.09974 58.0124 5.60394 57.9423 4.24837 57.8021C2.8928 57.7086 1.91118 57.545 1.30352 57.3113C0.929565 51.9357 0.836078 46.4901 1.02305 40.9743C1.21003 35.4586 1.30352 30.0129 1.30352 24.6374C1.30352 23.609 1.30352 22.0197 1.30352 19.8695C1.35026 17.6726 1.37363 15.4055 1.37363 13.0683C1.42037 10.7311 1.46712 8.55755 1.51386 6.54756C1.60735 4.53758 1.72421 3.15864 1.86444 2.41074C4.52883 1.1954 7.91776 0.447504 12.0312 0.167043C16.1914 -0.160165 20.5386 0.143668 25.0727 1.07854C26.7087 1.45249 28.0643 2.20039 29.1394 3.32224C30.2145 4.4441 31.0325 5.79966 31.5935 7.38895C32.1544 8.93149 32.4582 10.6143 32.505 12.4373C32.5985 14.2135 32.4582 15.9431 32.0843 17.6258C31.7571 19.3086 31.2429 20.8745 30.5417 22.3236C29.8406 23.7259 28.9992 24.8244 28.0176 25.619C29.4666 26.4137 30.6119 27.442 31.4532 28.7041C32.2946 29.9662 32.9023 31.3451 33.2762 32.8409C33.6969 34.3367 33.9073 35.8793 33.9073 37.4686C33.9073 39.0578 33.7671 40.577 33.4866 42.0261ZM21.2164 12.6476C21.0294 11.8062 20.6788 11.1752 20.1646 10.7545C19.6972 10.2871 19.1596 9.98323 18.552 9.843C17.991 9.65602 17.4067 9.60928 16.7991 9.70277C16.2381 9.74951 15.7473 9.86637 15.3266 10.0533C14.7657 10.3338 14.3684 10.9648 14.1347 11.9465C13.9477 12.9281 13.8308 14.0266 13.7841 15.2419C13.7374 16.4105 13.714 17.5557 13.714 18.6776C13.7607 19.7994 13.7841 20.6408 13.7841 21.2017C13.7374 22.791 13.9944 23.6558 14.5554 23.796C15.163 23.9362 16.1447 23.7259 17.5002 23.165C18.6221 22.7443 19.4868 22.1132 20.0945 21.2718C20.7022 20.4305 21.1229 19.519 21.3566 18.5373C21.5903 17.5557 21.6838 16.5507 21.6371 15.5224C21.5903 14.4473 21.4501 13.489 21.2164 12.6476ZM22.0577 35.7157C22.0577 34.9678 21.7773 34.4302 21.2164 34.103C20.6554 33.7758 19.9776 33.5655 19.183 33.472C18.4351 33.3785 17.6405 33.3785 16.7991 33.472C15.9577 33.5187 15.2332 33.5421 14.6255 33.5421C14.3918 33.5421 14.1814 33.916 13.9944 34.6639C13.8542 35.4118 13.714 36.3 13.5738 37.3283C13.4803 38.3099 13.3868 39.3383 13.2933 40.4134C13.1998 41.4418 13.1531 42.2598 13.1531 42.8675C13.1531 43.2414 13.1297 43.8023 13.0829 44.5502C13.0829 45.2514 13.1063 45.9759 13.1531 46.7238C13.2465 47.4717 13.3634 48.1729 13.5036 48.8273C13.6906 49.435 13.9711 49.8323 14.345 50.0193C14.8592 50.2997 15.3968 50.3932 15.9577 50.2997C16.5186 50.1595 17.0562 49.9725 17.5703 49.7388C18.8324 49.2246 19.7673 48.4066 20.375 47.2847C21.0294 46.1629 21.4734 44.9242 21.7072 43.5686C21.9876 42.1663 22.1045 40.764 22.0577 39.3617C22.0577 37.9594 22.0577 36.744 22.0577 35.7157Z" fill="white"/>
<path d="M59.5806 45.5319C59.6273 46.3732 59.6273 47.2614 59.5806 48.1962C59.5806 49.0844 59.5338 49.9491 59.4403 50.7905C59.3468 51.5852 59.2066 52.3331 59.0196 53.0342C58.8794 53.6886 58.6924 54.1794 58.4587 54.5067C56.9162 54.8806 55.2334 55.2312 53.4104 55.5584C51.6341 55.8389 49.7877 56.0492 47.8713 56.1894C46.0015 56.3297 44.1084 56.3764 42.1919 56.3297C40.2754 56.2829 38.3823 56.0959 36.5125 55.7687C36.2788 54.2729 36.1386 52.3331 36.0918 49.9491C36.0451 47.5652 36.0451 45.0644 36.0918 42.4468C36.1386 39.8291 36.2087 37.2816 36.3022 34.8042C36.3957 32.28 36.4658 30.1765 36.5125 28.4938C36.5593 26.5305 36.5593 24.4504 36.5125 22.2535C36.5125 20.0098 36.5125 17.7427 36.5125 15.4522C36.5593 13.1618 36.6294 10.9181 36.7229 8.72115C36.8164 6.47745 36.98 4.35061 37.2137 2.34062C37.9616 2.01342 39.247 1.70959 41.07 1.42912C42.893 1.14866 44.8563 0.938313 46.9597 0.798084C49.0632 0.657851 51.0966 0.611107 53.0598 0.65785C55.023 0.65785 56.4955 0.774709 57.4771 1.00843C57.6173 1.38238 57.7342 2.06016 57.8277 3.04178C57.9679 3.97666 58.0614 4.98165 58.1081 6.05676C58.1549 7.08512 58.1549 8.09011 58.1081 9.07173C58.0614 10.0066 57.9445 10.6376 57.7576 10.9648C57.3836 10.8714 56.7526 10.8246 55.8644 10.8246C55.023 10.7779 54.1115 10.7545 53.1299 10.7545C52.195 10.7545 51.2836 10.7779 50.3954 10.8246C49.554 10.8714 48.9464 10.9181 48.5724 10.9648C48.3854 11.853 48.2218 12.8813 48.0816 14.0499C47.9881 15.2185 47.918 16.4105 47.8713 17.6258C47.8713 18.8412 47.918 20.0331 48.0115 21.2017C48.105 22.3236 48.2919 23.2585 48.5724 24.0064C49.2268 23.8661 49.9747 23.7726 50.8161 23.7259C51.6575 23.6324 52.5223 23.5857 53.4104 23.5857C54.3453 23.5389 55.2334 23.4922 56.0748 23.4454C56.9629 23.3987 57.7576 23.3052 58.4587 23.165C58.5989 24.427 58.6924 25.8995 58.7392 27.5823C58.7859 29.265 58.5989 30.6673 58.1782 31.7892C57.6173 32.1631 56.9162 32.4903 56.0748 32.7708C55.2334 33.0045 54.3453 33.2149 53.4104 33.4019C52.4755 33.5888 51.5406 33.7524 50.6058 33.8927C49.6709 34.0329 48.8295 34.1731 48.0816 34.3134C47.9881 35.8559 47.918 37.5153 47.8713 39.2916C47.8713 41.0678 47.918 42.7272 48.0115 44.2698C48.0115 44.784 48.1517 45.2748 48.4322 45.7422C48.7126 46.1629 48.9931 46.3499 49.2736 46.3031C50.9096 46.0694 52.6391 45.9292 54.4621 45.8824C56.3319 45.7889 58.038 45.6721 59.5806 45.5319Z" fill="white"/>
<path d="M86.0985 45.5319C86.1453 46.3732 86.1453 47.2614 86.0985 48.1962C86.0985 49.0844 86.0518 49.9491 85.9583 50.7905C85.8648 51.5852 85.7246 52.3331 85.5376 53.0342C85.3974 53.6886 85.2104 54.1794 84.9767 54.5067C83.4341 54.8806 81.7514 55.2312 79.9283 55.5584C78.1521 55.8389 76.3057 56.0492 74.3892 56.1894C72.5195 56.3297 70.6263 56.3764 68.7098 56.3297C66.7933 56.2829 64.9002 56.0959 63.0305 55.7687C62.7968 54.2729 62.6565 52.3331 62.6098 49.9491C62.563 47.5652 62.563 45.0644 62.6098 42.4468C62.6565 39.8291 62.7266 37.2816 62.8201 34.8042C62.9136 32.28 62.9837 30.1765 63.0305 28.4938C63.0772 26.5305 63.0772 24.4504 63.0305 22.2535C63.0305 20.0098 63.0305 17.7427 63.0305 15.4522C63.0772 13.1618 63.1473 10.9181 63.2408 8.72115C63.3343 6.47745 63.4979 4.35061 63.7316 2.34062C64.4795 2.01342 65.765 1.70959 67.588 1.42912C69.411 1.14866 71.3742 0.938313 73.4777 0.798084C75.5812 0.657851 77.6145 0.611107 79.5778 0.65785C81.541 0.65785 83.0134 0.774709 83.995 1.00843C84.1353 1.38238 84.2521 2.06016 84.3456 3.04178C84.4859 3.97666 84.5793 4.98165 84.6261 6.05676C84.6728 7.08512 84.6728 8.09011 84.6261 9.07173C84.5793 10.0066 84.4625 10.6376 84.2755 10.9648C83.9016 10.8714 83.2705 10.8246 82.3824 10.8246C81.541 10.7779 80.6295 10.7545 79.6479 10.7545C78.713 10.7545 77.8015 10.7779 76.9134 10.8246C76.072 10.8714 75.4643 10.9181 75.0904 10.9648C74.9034 11.853 74.7398 12.8813 74.5996 14.0499C74.5061 15.2185 74.436 16.4105 74.3892 17.6258C74.3892 18.8412 74.436 20.0331 74.5294 21.2017C74.6229 22.3236 74.8099 23.2585 75.0904 24.0064C75.7448 23.8661 76.4927 23.7726 77.3341 23.7259C78.1755 23.6324 79.0402 23.5857 79.9283 23.5857C80.8632 23.5389 81.7513 23.4922 82.5927 23.4454C83.4809 23.3987 84.2755 23.3052 84.9767 23.165C85.1169 24.427 85.2104 25.8995 85.2571 27.5823C85.3039 29.265 85.1169 30.6673 84.6962 31.7892C84.1353 32.1631 83.4341 32.4903 82.5927 32.7708C81.7513 33.0045 80.8632 33.2149 79.9283 33.4019C78.9935 33.5888 78.0586 33.7524 77.1237 33.8927C76.1888 34.0329 75.3475 34.1731 74.5996 34.3134C74.5061 35.8559 74.436 37.5153 74.3892 39.2916C74.3892 41.0678 74.436 42.7272 74.5294 44.2698C74.5294 44.784 74.6697 45.2748 74.9501 45.7422C75.2306 46.1629 75.5111 46.3499 75.7915 46.3031C77.4276 46.0694 79.1571 45.9292 80.9801 45.8824C82.8498 45.7889 84.556 45.6721 86.0985 45.5319Z" fill="white"/>
<path d="M108.495 32.4877L111.408 35.7524C109.424 37.7113 107.013 38.4898 104.351 38.4898C97.4446 38.4898 94.7574 34.1452 94.7323 29.3736C94.7072 24.8532 97.7459 20.0565 104.351 20.0565C106.887 20.0565 109.173 20.9355 111.157 22.8692L108.093 25.8828C106.837 24.6774 105.531 24.3509 104.351 24.3509C100.96 24.3509 99.6294 27.1134 99.6546 29.3987C99.6797 31.6841 100.885 34.2708 104.351 34.2708C105.531 34.2708 107.239 33.7685 108.495 32.4877ZM136.534 29.248C136.534 35.1246 132.541 38.4647 126.765 38.4647C121.014 38.4647 116.995 35.1246 116.995 29.248C116.995 23.4719 121.014 20.0314 126.765 20.0314C132.541 20.0314 136.534 23.3966 136.534 29.248ZM131.561 29.248C131.561 26.2344 129.678 24.2756 126.765 24.2756C123.927 24.2756 121.968 26.3349 121.968 29.248C121.968 32.1863 123.952 34.2205 126.765 34.2205C129.678 34.2205 131.561 32.1612 131.561 29.248ZM158.829 38.0378V27.5654L154.334 32.8895H153.455L149.06 27.5906V38.0378H144.138V20.4583H149.337L153.957 26.4102L158.578 20.4583H163.752V38.0378H158.829ZM177.309 24.7276V29.0974H180.875C182.257 29.0974 182.96 28.0928 182.96 26.9376C182.96 25.7824 182.232 24.7276 180.875 24.7276H177.309ZM180.875 33.2913H177.309V38.0378H172.337V20.4583H180.875C185.597 20.4583 187.932 23.4217 187.932 26.8623C187.932 30.4535 185.572 33.2411 180.875 33.2913ZM207.223 38.0378L206.068 35.1497H198.208L197.052 38.0378H191.779L199.664 20.4583H204.687L212.548 38.0378H207.223ZM204.386 30.9809L202.151 25.3806L199.89 30.9809H204.386ZM223.193 20.4583L230.626 30.0768C230.501 27.9673 230.501 27.1636 230.475 26.4856V20.4583H235.473V38.0378H231.254L223.921 28.57L223.996 32.4124V38.0378H218.973V20.4583H223.193ZM247.724 20.4583L251.366 26.4856L255.158 20.4583H260.758V20.6843L253.776 31.0311V38.0378H248.804V31.0311L242.124 20.6592V20.4583H247.724Z" fill="white"/>
</svg>
