<svg width="40" height="40" viewBox="0 0 40 40" fill="none" xmlns="http://www.w3.org/2000/svg">
<path fill-rule="evenodd" clip-rule="evenodd" d="M28.3646 27.4541C25.235 29.3482 22.8565 31.8075 20.2347 34.2813C19.7228 34.7645 19.7 35.569 20.181 36.08C20.6624 36.5914 21.4693 36.613 21.9816 36.1301C24.4676 33.7843 26.71 31.4287 29.6822 29.6291C30.2835 29.2652 30.4768 28.4813 30.1117 27.8825C29.7499 27.2809 28.9655 27.0899 28.3646 27.4541Z" fill="#FF8C00"/>
<path fill-rule="evenodd" clip-rule="evenodd" d="M27.9842 17.3382C19.9625 16.9779 11.086 17.9568 3.35036 20.1725C2.67505 20.3664 2.28327 21.0717 2.4775 21.7455C2.67174 22.4194 3.37553 22.8114 4.05085 22.6175C11.5305 20.4755 20.1154 19.5286 27.8697 19.8793C28.5717 19.9099 29.1666 19.3659 29.1975 18.6654C29.2284 17.9649 28.6861 17.3687 27.9842 17.3382Z" fill="#FF8C00"/>
<path fill-rule="evenodd" clip-rule="evenodd" d="M31.1071 12.0923C27.9065 7.62675 22.8766 4.75494 17.8655 2.79524C17.21 2.54136 16.472 2.86446 16.2182 3.51579C15.9616 4.17043 16.2856 4.90811 16.9381 5.16498C21.5032 6.94844 26.1242 9.5073 29.0398 13.5739C29.4487 14.1446 30.2445 14.275 30.8137 13.867C31.3832 13.4594 31.5156 12.6627 31.1071 12.0923Z" fill="#FF8C00"/>
</svg>
