<svg width="40" height="40" viewBox="0 0 40 40" fill="none" xmlns="http://www.w3.org/2000/svg">
<path fill-rule="evenodd" clip-rule="evenodd" d="M11.2011 27.4541C14.3307 29.3482 16.7091 31.8075 19.331 34.2813C19.8429 34.7645 19.8657 35.569 19.3846 36.08C18.9032 36.5914 18.0963 36.613 17.5841 36.1301C15.098 33.7843 12.8557 31.4287 9.88348 29.6291C9.28221 29.2652 9.08888 28.4813 9.45396 27.8825C9.81575 27.2809 10.6001 27.0899 11.2011 27.4541Z" fill="#FF8C00"/>
<path fill-rule="evenodd" clip-rule="evenodd" d="M11.5815 17.3382C19.6032 16.9779 28.4796 17.9568 36.2153 20.1725C36.8906 20.3664 37.2824 21.0717 37.0882 21.7455C36.8939 22.4194 36.1901 22.8114 35.5148 22.6175C28.0351 20.4755 19.4503 19.5286 11.696 19.8793C10.994 19.9099 10.399 19.3659 10.3682 18.6654C10.3373 17.9649 10.8795 17.3687 11.5815 17.3382Z" fill="#FF8C00"/>
<path fill-rule="evenodd" clip-rule="evenodd" d="M8.45858 12.0923C11.6592 7.62675 16.6891 4.75494 21.7002 2.79524C22.3557 2.54136 23.0936 2.86446 23.3475 3.51579C23.6041 4.17043 23.2801 4.90811 22.6276 5.16498C18.0625 6.94844 13.4414 9.5073 10.5259 13.5739C10.117 14.1446 9.32121 14.275 8.75201 13.867C8.1825 13.4594 8.05004 12.6627 8.45858 12.0923Z" fill="#FF8C00"/>
</svg>
