<svg width="24" height="25" viewBox="0 0 24 25" fill="none" xmlns="http://www.w3.org/2000/svg">
<path d="M2.55 12.0769C2.62879 12.136 2.71845 12.179 2.81386 12.2034C2.90927 12.2279 3.00856 12.2333 3.10607 12.2193C3.20357 12.2054 3.29737 12.1724 3.38212 12.1222C3.46687 12.0721 3.54091 12.0057 3.6 11.9269C4.05409 11.3214 4.64291 10.83 5.31983 10.4916C5.99675 10.1531 6.74318 9.97688 7.5 9.97688C8.25682 9.97688 9.00325 10.1531 9.68017 10.4916C10.3571 10.83 10.9459 11.3214 11.4 11.9269C11.5195 12.0859 11.6972 12.1909 11.8941 12.2188C12.091 12.2468 12.291 12.1954 12.45 12.0759C12.5067 12.0338 12.5569 11.9836 12.5991 11.9269C13.0532 11.3214 13.642 10.83 14.3189 10.4916C14.9958 10.1531 15.7422 9.97688 16.4991 9.97688C17.2559 9.97688 18.0023 10.1531 18.6792 10.4916C19.3561 10.83 19.945 11.3214 20.3991 11.9269C20.5185 12.086 20.6963 12.1912 20.8933 12.2192C21.0903 12.2473 21.2904 12.1959 21.4495 12.0764C21.6087 11.9569 21.7138 11.7792 21.7419 11.5822C21.7699 11.3851 21.7185 11.1851 21.5991 11.0259C20.9352 10.1359 20.0499 9.43522 19.0312 8.99345C19.5897 8.48358 19.981 7.81678 20.1537 7.08057C20.3264 6.34436 20.2725 5.57313 19.9991 4.86809C19.7256 4.16306 19.2454 3.55716 18.6215 3.12992C17.9976 2.70268 17.259 2.47406 16.5028 2.47406C15.7466 2.47406 15.0081 2.70268 14.3841 3.12992C13.7602 3.55716 13.28 4.16306 13.0066 4.86809C12.7331 5.57313 12.6792 6.34436 12.8519 7.08057C13.0247 7.81678 13.4159 8.48358 13.9744 8.99345C13.2389 9.31149 12.5707 9.7668 12.0056 10.335C11.4406 9.7668 10.7724 9.31149 10.0369 8.99345C10.5953 8.48358 10.9866 7.81678 11.1593 7.08057C11.332 6.34436 11.2781 5.57313 11.0047 4.86809C10.7313 4.16306 10.2511 3.55716 9.62712 3.12992C9.00317 2.70268 8.26464 2.47406 7.50844 2.47406C6.75224 2.47406 6.0137 2.70268 5.38976 3.12992C4.76581 3.55716 4.28561 4.16306 4.01218 4.86809C3.73874 5.57313 3.68484 6.34436 3.85756 7.08057C4.03028 7.81678 4.42154 8.48358 4.98 8.99345C3.95686 9.43378 3.06722 10.135 2.4 11.0269C2.34091 11.1057 2.29791 11.1953 2.27346 11.2907C2.24902 11.3862 2.24361 11.4854 2.25754 11.583C2.27147 11.6805 2.30446 11.7743 2.35464 11.859C2.40483 11.9438 2.47121 12.0178 2.55 12.0769ZM16.5 3.97688C16.945 3.97688 17.38 4.10884 17.75 4.35608C18.12 4.60331 18.4084 4.95471 18.5787 5.36585C18.749 5.77698 18.7936 6.22938 18.7068 6.66584C18.62 7.10229 18.4057 7.50321 18.091 7.81787C17.7763 8.13254 17.3754 8.34684 16.939 8.43365C16.5025 8.52047 16.0501 8.47591 15.639 8.30561C15.2278 8.13532 14.8764 7.84693 14.6292 7.47692C14.382 7.10691 14.25 6.67189 14.25 6.22688C14.25 5.63015 14.4871 5.05785 14.909 4.63589C15.331 4.21394 15.9033 3.97688 16.5 3.97688ZM7.5 3.97688C7.94501 3.97688 8.38002 4.10884 8.75003 4.35608C9.12004 4.60331 9.40843 4.95471 9.57873 5.36585C9.74903 5.77698 9.79358 6.22938 9.70677 6.66584C9.61995 7.10229 9.40566 7.50321 9.09099 7.81787C8.77632 8.13254 8.37541 8.34684 7.93895 8.43365C7.5025 8.52047 7.0501 8.47591 6.63896 8.30561C6.22783 8.13532 5.87643 7.84693 5.62919 7.47692C5.38196 7.10691 5.25 6.67189 5.25 6.22688C5.25 5.63015 5.48705 5.05785 5.90901 4.63589C6.33097 4.21394 6.90326 3.97688 7.5 3.97688ZM19.0312 18.7434C19.5897 18.2336 19.981 17.5668 20.1537 16.8306C20.3264 16.0944 20.2725 15.3231 19.9991 14.6181C19.7256 13.9131 19.2454 13.3072 18.6215 12.8799C17.9976 12.4527 17.259 12.2241 16.5028 12.2241C15.7466 12.2241 15.0081 12.4527 14.3841 12.8799C13.7602 13.3072 13.28 13.9131 13.0066 14.6181C12.7331 15.3231 12.6792 16.0944 12.8519 16.8306C13.0247 17.5668 13.4159 18.2336 13.9744 18.7434C13.2389 19.0615 12.5707 19.5168 12.0056 20.085C11.4406 19.5168 10.7724 19.0615 10.0369 18.7434C10.5953 18.2336 10.9866 17.5668 11.1593 16.8306C11.332 16.0944 11.2781 15.3231 11.0047 14.6181C10.7313 13.9131 10.2511 13.3072 9.62712 12.8799C9.00317 12.4527 8.26464 12.2241 7.50844 12.2241C6.75224 12.2241 6.0137 12.4527 5.38976 12.8799C4.76581 13.3072 4.28561 13.9131 4.01218 14.6181C3.73874 15.3231 3.68484 16.0944 3.85756 16.8306C4.03028 17.5668 4.42154 18.2336 4.98 18.7434C3.95686 19.1838 3.06722 19.885 2.4 20.7769C2.34091 20.8557 2.29791 20.9453 2.27346 21.0407C2.24902 21.1362 2.24361 21.2354 2.25754 21.333C2.27147 21.4305 2.30446 21.5243 2.35464 21.609C2.40483 21.6938 2.47121 21.7678 2.55 21.8269C2.62879 21.886 2.71845 21.929 2.81386 21.9534C2.90927 21.9779 3.00856 21.9833 3.10607 21.9693C3.20357 21.9554 3.29737 21.9224 3.38212 21.8722C3.46687 21.8221 3.54091 21.7557 3.6 21.6769C4.05409 21.0714 4.64291 20.58 5.31983 20.2416C5.99675 19.9031 6.74318 19.7269 7.5 19.7269C8.25682 19.7269 9.00325 19.9031 9.68017 20.2416C10.3571 20.58 10.9459 21.0714 11.4 21.6769C11.5195 21.8359 11.6972 21.9409 11.8941 21.9688C12.091 21.9968 12.291 21.9454 12.45 21.8259C12.5067 21.7838 12.5569 21.7336 12.5991 21.6769C13.0532 21.0714 13.642 20.58 14.3189 20.2416C14.9958 19.9031 15.7422 19.7269 16.4991 19.7269C17.2559 19.7269 18.0023 19.9031 18.6792 20.2416C19.3561 20.58 19.945 21.0714 20.3991 21.6769C20.5185 21.836 20.6963 21.9412 20.8933 21.9692C21.0903 21.9973 21.2904 21.9459 21.4495 21.8264C21.6087 21.7069 21.7138 21.5292 21.7419 21.3321C21.7699 21.1351 21.7185 20.9351 21.5991 20.7759C20.9352 19.8859 20.0499 19.1852 19.0312 18.7434ZM7.5 13.7269C7.94501 13.7269 8.38002 13.8588 8.75003 14.1061C9.12004 14.3533 9.40843 14.7047 9.57873 15.1158C9.74903 15.527 9.79358 15.9794 9.70677 16.4158C9.61995 16.8523 9.40566 17.2532 9.09099 17.5679C8.77632 17.8825 8.37541 18.0968 7.93895 18.1837C7.5025 18.2705 7.0501 18.2259 6.63896 18.0556C6.22783 17.8853 5.87643 17.5969 5.62919 17.2269C5.38196 16.8569 5.25 16.4219 5.25 15.9769C5.25 15.3801 5.48705 14.8079 5.90901 14.3859C6.33097 13.9639 6.90326 13.7269 7.5 13.7269ZM16.5 13.7269C16.945 13.7269 17.38 13.8588 17.75 14.1061C18.12 14.3533 18.4084 14.7047 18.5787 15.1158C18.749 15.527 18.7936 15.9794 18.7068 16.4158C18.62 16.8523 18.4057 17.2532 18.091 17.5679C17.7763 17.8825 17.3754 18.0968 16.939 18.1837C16.5025 18.2705 16.0501 18.2259 15.639 18.0556C15.2278 17.8853 14.8764 17.5969 14.6292 17.2269C14.382 16.8569 14.25 16.4219 14.25 15.9769C14.25 15.3801 14.4871 14.8079 14.909 14.3859C15.331 13.9639 15.9033 13.7269 16.5 13.7269Z" fill="black"/>
</svg>
